<?xml version="1.0" encoding="UTF-8"?>
<svg xmlns="http://www.w3.org/2000/svg" viewBox="0 0 800 560" width="800" height="560" font-family="Arial,'Segoe UI','Noto Sans',sans-serif" role="img" aria-label="Age-sex pyramids of developing and developed countries">
  <rect width="800" height="560" fill="#ffffff"/>
  <rect width="800" height="70" fill="#34495E"/>
  <text x="28" y="35" font-size="22" font-weight="bold" fill="#ffffff">Q23 · Age-Sex Pyramid 👥</text>
  <text x="29" y="56" font-size="13" fill="#b7c8dc">Visual presentation of population by age &amp; sex</text>

  <g font-size="12">
    <rect x="40" y="88" width="300" height="26" rx="6" fill="#C0392B"/>
    <text x="190" y="106" fill="#ffffff" font-weight="bold" text-anchor="middle">🇧🇩 DEVELOPING (Bangladesh)</text>
    <rect x="460" y="88" width="300" height="26" rx="6" fill="#1E8449"/>
    <text x="610" y="106" fill="#ffffff" font-weight="bold" text-anchor="middle">🇪🇺 DEVELOPED</text>
  </g>

  <g font-size="10.5">
    <line x1="190" y1="126" x2="190" y2="396" stroke="#D5DBDB"/>
    <line x1="610" y1="126" x2="610" y2="396" stroke="#D5DBDB"/>
  </g>

  <g fill="#5DADE2">
    <rect x="152.5" y="126" width="37.5" height="24" fill="#C0392B"/>
    <rect x="227.5" y="126" width="37.5" height="24" fill="#C0392B"/>
    <rect x="165" y="154" width="25" height="24" fill="#C0392B"/>
    <rect x="215" y="154" width="25" height="24" fill="#C0392B"/>
    <rect x="150" y="182" width="40" height="24" fill="#C0392B"/>
    <rect x="230" y="182" width="40" height="24" fill="#C0392B"/>
    <rect x="135" y="210" width="55" height="24" fill="#C0392B"/>
    <rect x="245" y="210" width="55" height="24" fill="#C0392B"/>
    <rect x="120" y="238" width="70" height="24" fill="#C0392B"/>
    <rect x="260" y="238" width="70" height="24" fill="#C0392B"/>
    <rect x="105" y="266" width="85" height="24" fill="#C0392B"/>
    <rect x="275" y="266" width="85" height="24" fill="#C0392B"/>
    <rect x="85" y="294" width="105" height="24" fill="#C0392B"/>
    <rect x="295" y="294" width="105" height="24" fill="#C0392B"/>
    <rect x="60" y="322" width="130" height="24" fill="#C0392B"/>
    <rect x="320" y="322" width="130" height="24" fill="#C0392B"/>
    <rect x="40" y="350" width="150" height="24" fill="#C0392B"/>
    <rect x="340" y="350" width="150" height="24" fill="#C0392B"/>
  </g>

  <g fill="#2ECC71">
    <rect x="153" y="126" width="37" height="24" fill="#1E8449"/>
    <rect x="227" y="126" width="37" height="24" fill="#1E8449"/>
    <rect x="130" y="154" width="60" height="24" fill="#1E8449"/>
    <rect x="250" y="154" width="60" height="24" fill="#1E8449"/>
    <rect x="105" y="182" width="85" height="24" fill="#1E8449"/>
    <rect x="275" y="182" width="85" height="24" fill="#1E8449"/>
    <rect x="85" y="210" width="105" height="24" fill="#1E8449"/>
    <rect x="295" y="210" width="105" height="24" fill="#1E8449"/>
    <rect x="75" y="238" width="115" height="24" fill="#1E8449"/>
    <rect x="305" y="238" width="115" height="24" fill="#1E8449"/>
    <rect x="95" y="266" width="95" height="24" fill="#1E8449"/>
    <rect x="285" y="266" width="95" height="24" fill="#1E8449"/>
    <rect x="100" y="294" width="90" height="24" fill="#1E8449"/>
    <rect x="280" y="294" width="90" height="24" fill="#1E8449"/>
    <rect x="120" y="322" width="70" height="24" fill="#1E8449"/>
    <rect x="260" y="322" width="70" height="24" fill="#1E8449"/>
    <rect x="130" y="350" width="60" height="24" fill="#1E8449"/>
    <rect x="250" y="350" width="60" height="24" fill="#1E8449"/>
  </g>

  <g font-size="10" fill="#95A5A6">
    <text x="35" y="141" text-anchor="end">80+</text>
    <text x="35" y="169" text-anchor="end">70-79</text>
    <text x="35" y="197" text-anchor="end">60-69</text>
    <text x="35" y="225" text-anchor="end">50-59</text>
    <text x="35" y="253" text-anchor="end">40-49</text>
    <text x="35" y="281" text-anchor="end">30-39</text>
    <text x="35" y="309" text-anchor="end">20-29</text>
    <text x="35" y="337" text-anchor="end">10-19</text>
    <text x="35" y="365" text-anchor="end">0-9</text>
    <text x="765" y="141" text-anchor="start">80+</text>
    <text x="765" y="169" text-anchor="start">70-79</text>
    <text x="765" y="197" text-anchor="start">60-69</text>
    <text x="765" y="225" text-anchor="start">50-59</text>
    <text x="765" y="253" text-anchor="start">40-49</text>
    <text x="765" y="281" text-anchor="start">30-39</text>
    <text x="765" y="309" text-anchor="start">20-29</text>
    <text x="765" y="337" text-anchor="start">10-19</text>
    <text x="765" y="365" text-anchor="start">0-9</text>
  </g>

  <g font-size="12">
    <rect x="40" y="408" width="300" height="62" rx="9" fill="#FDECEC" stroke="#C0392B"/>
    <text x="56" y="428" font-weight="bold" fill="#922B21">Wide base · narrow apex</text>
    <text x="56" y="446" fill="#7b241c">→ many children (0–15 yr)</text>
    <text x="56" y="462" fill="#7b241c">→ rapid future growth · ⚠ high</text>
    <text x="56" y="478" fill="#7b241c">  dependency ratio (&gt;97)</text>

    <rect x="460" y="408" width="300" height="62" rx="9" fill="#EAFAF1" stroke="#27AE60"/>
    <text x="476" y="428" font-weight="bold" fill="#1E8449">Narrow base · body bulge</text>
    <text x="476" y="446" fill="#145A32">→ mostly middle-aged</text>
    <text x="476" y="462" fill="#145A32">→ planned / stable growth</text>
    <text x="476" y="478" fill="#145A32">→ aging population</text>
  </g>

  <rect x="28" y="486" width="744" height="34" rx="10" fill="#F4F6F7" stroke="#95A5A6"/>
  <text x="46" y="507" font-size="12.5" fill="#5D6D7E">💡 Importance: shows planned vs unplanned growth · most people in developing countries are children</text>
  <text x="46" y="520" font-size="12" fill="#5D6D7E">· health services in developing countries inadequate vs adequate in developed</text>

  <rect x="28" y="532" width="744" height="18" rx="6" fill="#34495E" fill-opacity="0.08"/>
  <text x="46" y="545" font-size="11.5" font-weight="bold" fill="#2C3E50">🎯 Developing = wide base + narrow apex (young, rapid growth) · Developed = middle bulge (aging, stable)</text>
</svg>